<?xml version="1.0" encoding="UTF-8"?>
<svg width="1200pt" height="1200pt" version="1.1" viewBox="0 0 1200 1200" xmlns="http://www.w3.org/2000/svg">
 <path d="m1198.5 485.76-78.023-352.38c-6.5391-29.484-37.043-57.469-77.387-49.332l-108.05 23.926c-51.516 13.176-52.945 59.746-49.547 76.332l-326.52 72.277 7.3672 33.277-256.19 56.723 7.8359 35.41-169.26 37.477c-7.5469-16.008-27.059-30.602-51.949-25.391l-60.266 13.344c-25.066 5.5547-40.957 30.469-35.398 55.547l43.512 196.5c4.6797 21.168 26.352 41.293 55.547 35.426l60.254-13.344c21.457-4.7539 36.145-23.762 36.348-44.93l169.29-37.488 7.8359 35.398 99.758-22.078-191.69 407.66c-8.4258 15.77-21.996 65.711 27.613 91.402 59.902 24.527 87.816-35.941 87.816-35.941l52.945-112.75h185.48l52.922 114.79s30.602 57.492 88.727 30.516c47.629-27.973 34.43-72.793 26.195-88.078l-204.22-435.49 30.648-6.7422 7.3555 33.254 326.53-72.277c6.9102 28.922 38.102 57.047 77.137 48.277l108.05-23.93c53.977-13.934 53.074-60.445 49.332-77.387zm-436.67 555.8c4.5352 7.5586 4.3086 19.621-5.6875 24.707-13.297 7.4414-22.32-4.8477-25.812-10.656l-64.453-139.77h-245.4l-65.629 139.77c-2.6289 4.3672-11.941 19.512-25.031 13.5-10.344-4.9336-10.547-19.992-6.0117-27.551l203.63-433.01c6.168-11.746 26.27-10.246 31.367 0zm-671.41-392.62-43.344-195.72 58.934-13.066 43.344 195.74zm74.074-53.293-27.758-125.36 215.17-47.652 27.758 125.38zm245.95-17.316-43.441-196.2 233.14-51.625 43.453 196.2zm263.45-23.426-58.176-262.74 303.17-67.141 58.176 262.74zm465.12-37.641-108.06 23.938c-10.824 2.6055-19.535-5.4609-21.336-13.598l-78.023-352.4c-2.1367-9.6367 3.9609-19.223 13.609-21.348l108.05-23.914c10.801-2.3281 19.535 5.4727 21.336 13.609l78.023 352.4c1.0312 4.6562 0.95703 17.266-13.598 21.312zm-699.41 356.54h207l-103.5-224.77zm133.64-46.98h-60.277l30.145-65.449z"/>
</svg>
